<svg width="452" height="481" viewBox="0 0 452 481" fill="none"
    xmlns="http://www.w3.org/2000/svg">
    <g clip-path="url(#clip0_2_7)">
        <path d="M192.208 411.224C192.208 419.443 190.736 426.925 187.792 433.672C184.848 440.419 180.647 446.215 175.188 451.06C169.729 455.844 163.228 459.493 155.684 462.008L146.76 438.272C152.771 435.451 157.708 431.617 161.572 426.772C165.375 421.927 167.276 416.529 167.276 410.58C167.276 404.447 166.049 399.54 163.596 395.86C161.143 392.18 157.585 390.34 152.924 390.34C149.735 390.34 147.097 391.413 145.012 393.56C142.927 395.707 141.117 398.651 139.584 402.392C137.989 406.133 136.395 410.427 134.8 415.272C133.205 420.056 131.457 424.901 129.556 429.808C127.593 434.715 125.171 439.223 122.288 443.332C119.405 447.441 115.756 450.753 111.34 453.268C106.863 455.721 101.343 456.948 94.78 456.948C88.2787 456.948 82.3293 455.231 76.932 451.796C71.4733 448.3 67.1187 443.271 63.868 436.708C60.6173 430.084 58.992 422.08 58.992 412.696C58.992 404.968 60.372 398.099 63.132 392.088C65.8307 386.077 69.5107 381.109 74.172 377.184C78.8333 373.259 84.0773 370.499 89.904 368.904L97.724 392.456C93.7987 394.235 90.5173 396.811 87.88 400.184C85.2427 403.496 83.924 408.127 83.924 414.076C83.924 419.351 84.9053 423.429 86.868 426.312C88.7693 429.133 91.56 430.544 95.24 430.544C97.632 430.544 99.6867 429.593 101.404 427.692C103.06 425.729 104.563 423.061 105.912 419.688C107.261 416.253 108.703 412.328 110.236 407.912C112.015 402.637 113.977 397.393 116.124 392.18C118.271 386.967 120.908 382.244 124.036 378.012C127.164 373.719 131.059 370.315 135.72 367.8C140.381 365.224 146.147 363.936 153.016 363.936C161.296 363.936 168.349 366.021 174.176 370.192C180.003 374.363 184.48 380.036 187.608 387.212C190.675 394.327 192.208 402.331 192.208 411.224Z" fill="#00CA65"/>
        <path d="M343.208 406.81C343.208 416.317 341.368 424.443 337.688 431.19C333.947 437.937 328.917 443.426 322.6 447.658C316.221 451.89 309.076 455.018 301.164 457.042C293.191 459.005 285.003 459.986 276.6 459.986C268.136 459.986 259.948 458.943 252.036 456.858C244.063 454.711 236.917 451.491 230.6 447.198C224.283 442.843 219.284 437.323 215.604 430.638C211.863 423.953 209.992 416.01 209.992 406.81C209.992 399.45 211.004 393.255 213.028 388.226C215.052 383.197 217.689 379.026 220.94 375.714C224.129 372.341 227.472 369.519 230.968 367.25L237.776 378.75C233.605 381.633 229.987 385.221 226.92 389.514C223.792 393.807 222.228 399.573 222.228 406.81C222.228 414.231 223.853 420.487 227.104 425.578C230.355 430.669 234.679 434.747 240.076 437.814C245.412 440.881 251.269 443.119 257.648 444.53C264.027 445.879 270.344 446.554 276.6 446.554C283.592 446.554 290.339 445.787 296.84 444.254C303.341 442.721 309.137 440.359 314.228 437.17C319.319 433.919 323.367 429.81 326.372 424.842C329.316 419.813 330.788 413.802 330.788 406.81C330.788 400.615 329.408 395.249 326.648 390.71C323.888 386.11 319.932 382.553 314.78 380.038C309.567 377.523 303.311 376.266 296.012 376.266H291.872V400.83H280.004V362.742H292.332C303.74 362.742 313.216 364.674 320.76 368.538C328.243 372.402 333.855 377.677 337.596 384.362C341.337 390.986 343.208 398.469 343.208 406.81ZM341 326.761H212.2V253.345H224.252V313.881H268.32V273.677H280.372V313.881H328.764V249.297H341V326.761ZM341 216.929H212.2V203.957L308.892 143.973C310.425 143.053 311.989 142.133 313.584 141.213C315.117 140.293 316.743 139.373 318.46 138.453C316.865 138.515 315.271 138.576 313.676 138.637C312.081 138.699 310.548 138.729 309.076 138.729H212.2V125.849H341L341 138.269L244.032 198.989C242.621 199.787 241.149 200.645 239.616 201.565C238.021 202.485 236.457 203.405 234.924 204.325C236.335 204.203 237.837 204.141 239.432 204.141C240.965 204.08 242.499 204.049 244.032 204.049H341V216.929ZM341 86.972H212.2V13.556H224.252V74.092H268.32V33.888H280.372V74.092H328.764V9.50799H341V86.972Z" fill="#990000"/>
    </g>
    <defs>
        <clipPath id="clip0_2_7">
            <rect width="452" height="481" fill="white"/>
        </clipPath>
    </defs>
</svg>
