<svg width="1632" height="199" viewBox="0 0 1632 199" fill="none" xmlns="http://www.w3.org/2000/svg">
<g clip-path="url(#clip0_1_6)">
<path d="M849.338 165.208C840.322 165.208 832.625 163.368 826.246 159.688C819.868 155.947 814.685 150.917 810.698 144.6C806.712 138.221 803.768 131.076 801.866 123.164C800.026 115.191 799.106 107.003 799.106 98.6C799.106 89.8293 800.088 81.4573 802.05 73.484C804.013 65.4493 807.018 58.3347 811.066 52.14C815.176 45.884 820.389 40.9773 826.706 37.42C833.085 33.8013 840.629 31.992 849.338 31.992C855.41 31.992 860.685 32.8813 865.162 34.66C869.64 36.4387 873.442 38.6773 876.57 41.376C879.76 44.0747 882.397 46.8347 884.482 49.656L878.594 53.52C875.773 49.5333 872.032 46.068 867.37 43.124C862.709 40.1187 856.698 38.616 849.338 38.616C841.365 38.616 834.618 40.3947 829.098 43.952C823.64 47.5093 819.224 52.232 815.85 58.12C812.477 64.008 810.024 70.4787 808.49 77.532C807.018 84.5853 806.282 91.608 806.282 98.6C806.282 106.389 807.11 113.872 808.766 121.048C810.422 128.224 812.968 134.633 816.402 140.276C819.898 145.919 824.345 150.396 829.742 153.708C835.201 156.959 841.733 158.584 849.338 158.584C856.208 158.584 862.157 156.928 867.186 153.616C872.277 150.304 876.202 145.336 878.962 138.712C881.784 132.027 883.194 123.624 883.194 113.504V111.296H856.146V105.04H890.186V111.296C890.186 124.053 888.408 134.388 884.85 142.3C881.354 150.212 876.509 156.008 870.314 159.688C864.181 163.368 857.189 165.208 849.338 165.208ZM930.788 163V34.2H997.948V40.272H937.412V93.264H978.26V99.336H937.412V156.928H1002V163H930.788ZM1038.46 163V34.2H1044.9L1110.96 141.104C1111.88 142.576 1112.83 144.109 1113.81 145.704C1114.79 147.299 1115.74 148.893 1116.66 150.488C1116.66 148.893 1116.66 147.329 1116.66 145.796C1116.66 144.201 1116.66 142.637 1116.66 141.104V34.2H1123.29V163H1116.85L1050.79 56.096C1049.87 54.624 1048.92 53.0907 1047.94 51.496C1046.96 49.84 1046.01 48.2453 1045.09 46.712C1045.09 48.2453 1045.09 49.8093 1045.09 51.404C1045.09 52.9373 1045.09 54.5013 1045.09 56.096V163H1038.46ZM1165.19 163V34.2H1232.35V40.272H1171.81V93.264H1212.66V99.336H1171.81V156.928H1236.4V163H1165.19ZM1301.36 163V40.824H1266.03V34.2H1343.5V40.824H1307.99V163H1301.36ZM1377.66 163V34.2H1384.29V163H1377.66ZM1471.85 165.208C1462.95 165.208 1455.32 163.368 1448.94 159.688C1442.62 155.947 1437.47 150.917 1433.48 144.6C1429.56 138.221 1426.64 131.076 1424.74 123.164C1422.9 115.191 1421.98 107.003 1421.98 98.6C1421.98 90.0133 1422.96 81.764 1424.93 73.852C1426.95 65.8787 1430.02 58.764 1434.13 52.508C1438.24 46.1907 1443.39 41.192 1449.58 37.512C1455.84 33.832 1463.2 31.992 1471.66 31.992C1478.9 31.992 1484.85 33.004 1489.51 35.028C1494.23 36.9907 1498.07 39.5667 1501.01 42.756C1503.95 45.9453 1506.44 49.288 1508.46 52.784L1502.76 56.096C1501.04 53.152 1498.92 50.3613 1496.41 47.724C1493.96 45.0253 1490.74 42.848 1486.75 41.192C1482.82 39.4747 1477.8 38.616 1471.66 38.616C1464.42 38.616 1458.14 40.272 1452.8 43.584C1447.47 46.896 1443.05 51.3733 1439.55 57.016C1436.06 62.6587 1433.45 69.068 1431.73 76.244C1430.02 83.42 1429.16 90.872 1429.16 98.6C1429.16 106.205 1429.92 113.596 1431.46 120.772C1433.05 127.948 1435.54 134.388 1438.91 140.092C1442.28 145.735 1446.67 150.243 1452.07 153.616C1457.52 156.928 1464.12 158.584 1471.85 158.584C1480.49 158.584 1487.46 156.591 1492.73 152.604C1498 148.556 1501.84 144.109 1504.23 139.264L1510.3 141.656C1508.46 145.581 1505.86 149.353 1502.48 152.972C1499.11 156.529 1494.88 159.473 1489.79 161.804C1484.76 164.073 1478.78 165.208 1471.85 165.208ZM1579.26 165.208C1572.7 165.208 1566.72 163.981 1561.32 161.528C1555.98 159.013 1551.38 155.701 1547.52 151.592C1543.72 147.483 1540.8 143.005 1538.78 138.16L1545.77 135.952C1548.84 142.76 1553.32 148.28 1559.2 152.512C1565.09 156.683 1571.84 158.768 1579.44 158.768C1588.58 158.768 1595.91 156.407 1601.43 151.684C1607.01 146.961 1609.8 140.061 1609.8 130.984C1609.8 125.157 1608.33 120.097 1605.39 115.804C1602.44 111.449 1598.61 107.739 1593.89 104.672C1589.16 101.605 1584.1 99.0293 1578.71 96.944C1574.41 95.288 1570.15 93.448 1565.92 91.424C1561.75 89.3387 1557.92 86.8853 1554.42 84.064C1550.98 81.2427 1548.22 77.9 1546.14 74.036C1544.05 70.1107 1543.01 65.48 1543.01 60.144C1543.01 54.808 1544.33 50.024 1546.97 45.792C1549.67 41.4987 1553.59 38.1253 1558.74 35.672C1563.96 33.2187 1570.3 31.992 1577.79 31.992C1583.12 31.992 1588.06 32.8813 1592.6 34.66C1597.14 36.3773 1601.03 38.8307 1604.28 42.02C1607.53 45.148 1609.86 48.8587 1611.28 53.152L1604.65 55.176C1602.44 49.84 1599.04 45.7307 1594.44 42.848C1589.9 39.904 1584.17 38.432 1577.24 38.432C1568.71 38.432 1562.02 40.4253 1557.18 44.412C1552.4 48.3373 1550 53.704 1550 60.512C1550 66.032 1551.54 70.632 1554.6 74.312C1557.67 77.9307 1561.63 80.9973 1566.47 83.512C1571.32 86.0267 1576.38 88.3573 1581.65 90.504C1585.7 92.16 1589.78 94.1227 1593.89 96.392C1598.06 98.6 1601.86 101.299 1605.3 104.488C1608.73 107.677 1611.49 111.449 1613.58 115.804C1615.72 120.159 1616.8 125.28 1616.8 131.168C1616.8 138.405 1615.17 144.569 1611.92 149.66C1608.73 154.689 1604.31 158.553 1598.67 161.252C1593.03 163.889 1586.56 165.208 1579.26 165.208Z" fill="#07A254"/>
<path d="M65.776 165.208C57.5573 165.208 50.0747 163.736 43.328 160.792C36.5813 157.848 30.7853 153.647 25.94 148.188C21.156 142.729 17.5067 136.228 14.992 128.684L38.728 119.76C41.5493 125.771 45.3827 130.708 50.228 134.572C55.0733 138.375 60.4707 140.276 66.42 140.276C72.5533 140.276 77.46 139.049 81.14 136.596C84.82 134.143 86.66 130.585 86.66 125.924C86.66 122.735 85.5867 120.097 83.44 118.012C81.2933 115.927 78.3493 114.117 74.608 112.584C70.8667 110.989 66.5733 109.395 61.728 107.8C56.944 106.205 52.0987 104.457 47.192 102.556C42.2853 100.593 37.7773 98.1707 33.668 95.288C29.5587 92.4053 26.2467 88.756 23.732 84.34C21.2787 79.8627 20.052 74.3427 20.052 67.78C20.052 61.2787 21.7693 55.3293 25.204 49.932C28.7 44.4733 33.7293 40.1187 40.292 36.868C46.916 33.6173 54.92 31.992 64.304 31.992C72.032 31.992 78.9013 33.372 84.912 36.132C90.9227 38.8307 95.8907 42.5107 99.816 47.172C103.741 51.8333 106.501 57.0773 108.096 62.904L84.544 70.724C82.7653 66.7987 80.1893 63.5173 76.816 60.88C73.504 58.2427 68.8733 56.924 62.924 56.924C57.6493 56.924 53.5707 57.9053 50.688 59.868C47.8667 61.7693 46.456 64.56 46.456 68.24C46.456 70.632 47.4067 72.6867 49.308 74.404C51.2707 76.06 53.9387 77.5627 57.312 78.912C60.7467 80.2613 64.672 81.7027 69.088 83.236C74.3627 85.0147 79.6067 86.9773 84.82 89.124C90.0333 91.2707 94.756 93.908 98.988 97.036C103.281 100.164 106.685 104.059 109.2 108.72C111.776 113.381 113.064 119.147 113.064 126.016C113.064 134.296 110.979 141.349 106.808 147.176C102.637 153.003 96.964 157.48 89.788 160.608C82.6733 163.675 74.6693 165.208 65.776 165.208ZM137.934 163V34.2H194.054C204.972 34.2 213.681 36.224 220.182 40.272C226.684 44.2587 231.345 49.38 234.166 55.636C236.988 61.892 238.398 68.424 238.398 75.232C238.398 79.9547 237.57 84.7387 235.914 89.584C234.258 94.368 231.652 98.784 228.094 102.832C224.598 106.819 220.029 110.039 214.386 112.492C208.744 114.945 201.966 116.172 194.054 116.172H164.43V163H137.934ZM164.43 91.24H195.158C199.022 91.24 202.12 90.4427 204.45 88.848C206.781 87.2533 208.468 85.2293 209.51 82.776C210.553 80.2613 211.074 77.7467 211.074 75.232C211.074 72.9013 210.584 70.5093 209.602 68.056C208.682 65.5413 207.057 63.4253 204.726 61.708C202.396 59.9907 199.206 59.132 195.158 59.132H164.43V91.24ZM310.975 165.208C300.671 165.208 291.9 163.276 284.663 159.412C277.425 155.487 271.568 150.304 267.091 143.864C262.675 137.363 259.424 130.187 257.339 122.336C255.315 114.485 254.303 106.573 254.303 98.6C254.303 90.6267 255.315 82.7147 257.339 74.864C259.424 67.0133 262.675 59.868 267.091 53.428C271.568 46.9267 277.425 41.744 284.663 37.88C291.9 33.9547 300.671 31.992 310.975 31.992C321.401 31.992 330.203 33.9547 337.379 37.88C344.555 41.744 350.351 46.9267 354.767 53.428C359.244 59.868 362.495 67.0133 364.519 74.864C366.543 82.7147 367.555 90.6267 367.555 98.6C367.555 106.573 366.543 114.485 364.519 122.336C362.495 130.187 359.244 137.363 354.767 143.864C350.351 150.304 344.555 155.487 337.379 159.412C330.203 163.276 321.401 165.208 310.975 165.208ZM310.975 139.632C316.372 139.632 320.911 138.375 324.591 135.86C328.332 133.345 331.337 130.033 333.607 125.924C335.876 121.753 337.532 117.276 338.575 112.492C339.617 107.708 340.139 103.077 340.139 98.6C340.139 93.816 339.648 89.0013 338.667 84.156C337.685 79.3107 336.06 74.864 333.791 70.816C331.583 66.768 328.608 63.5173 324.867 61.064C321.125 58.6107 316.495 57.384 310.975 57.384C305.455 57.384 300.824 58.672 297.083 61.248C293.341 63.7627 290.336 67.0747 288.067 71.184C285.797 75.2933 284.172 79.7707 283.191 84.616C282.209 89.4613 281.719 94.1227 281.719 98.6C281.719 103.323 282.209 108.107 283.191 112.952C284.233 117.736 285.889 122.152 288.159 126.2C290.489 130.248 293.525 133.499 297.267 135.952C301.008 138.405 305.577 139.632 310.975 139.632ZM417.919 163V59.592H381.119V34.2H481.307V59.592H444.415V163H417.919ZM503.009 163V34.2H529.505V163H503.009ZM559.654 163V34.2H647.974V59.316H586.15V83.972H625.342V109.088H586.15V163H559.654ZM705.567 163V112.86L657.175 34.2H686.983L718.631 84.984L750.187 34.2H779.995L731.695 112.768V163H705.567Z" fill="#00CA65"/>
</g>
<defs>
<clipPath id="clip0_1_6">
<rect width="1632" height="199" fill="white"/>
</clipPath>
</defs>
</svg>
