<svg width="1604" height="202" viewBox="0 0 1604 202" fill="none" xmlns="http://www.w3.org/2000/svg">
<g clip-path="url(#clip0_1_6)">
<path d="M828.278 165.208C819.262 165.208 811.565 163.368 805.186 159.688C798.808 155.947 793.625 150.917 789.638 144.6C785.652 138.221 782.708 131.076 780.806 123.164C778.966 115.191 778.046 107.003 778.046 98.6C778.046 89.8293 779.028 81.4573 780.99 73.484C782.953 65.4493 785.958 58.3347 790.006 52.14C794.116 45.884 799.329 40.9773 805.646 37.42C812.025 33.8013 819.569 31.992 828.278 31.992C834.35 31.992 839.625 32.8813 844.102 34.66C848.58 36.4387 852.382 38.6773 855.51 41.376C858.7 44.0747 861.337 46.8347 863.422 49.656L857.534 53.52C854.713 49.5333 850.972 46.068 846.31 43.124C841.649 40.1187 835.638 38.616 828.278 38.616C820.305 38.616 813.558 40.3947 808.038 43.952C802.58 47.5093 798.164 52.232 794.79 58.12C791.417 64.008 788.964 70.4787 787.43 77.532C785.958 84.5853 785.222 91.608 785.222 98.6C785.222 106.389 786.05 113.872 787.706 121.048C789.362 128.224 791.908 134.633 795.342 140.276C798.838 145.919 803.285 150.396 808.682 153.708C814.141 156.959 820.673 158.584 828.278 158.584C835.148 158.584 841.097 156.928 846.126 153.616C851.217 150.304 855.142 145.336 857.902 138.712C860.724 132.027 862.134 123.624 862.134 113.504V111.296H835.086V105.04H869.126V111.296C869.126 124.053 867.348 134.388 863.79 142.3C860.294 150.212 855.449 156.008 849.254 159.688C843.121 163.368 836.129 165.208 828.278 165.208ZM907.888 163V34.2H975.048V40.272H914.512V93.264H955.36V99.336H914.512V156.928H979.096V163H907.888ZM1013.72 163V34.2H1020.16L1086.22 141.104C1087.14 142.576 1088.09 144.109 1089.07 145.704C1090.05 147.299 1091 148.893 1091.92 150.488C1091.92 148.893 1091.92 147.329 1091.92 145.796C1091.92 144.201 1091.92 142.637 1091.92 141.104V34.2H1098.55V163H1092.11L1026.05 56.096C1025.13 54.624 1024.18 53.0907 1023.2 51.496C1022.22 49.84 1021.27 48.2453 1020.35 46.712C1020.35 48.2453 1020.35 49.8093 1020.35 51.404C1020.35 52.9373 1020.35 54.5013 1020.35 56.096V163H1013.72ZM1138.61 163V34.2H1205.77V40.272H1145.23V93.264H1186.08V99.336H1145.23V156.928H1209.82V163H1138.61ZM1272.94 163V40.824H1237.61V34.2H1315.08V40.824H1279.57V163H1272.94ZM1347.4 163V34.2H1354.03V163H1347.4ZM1439.75 165.208C1430.85 165.208 1423.22 163.368 1416.84 159.688C1410.52 155.947 1405.37 150.917 1401.38 144.6C1397.46 138.221 1394.54 131.076 1392.64 123.164C1390.8 115.191 1389.88 107.003 1389.88 98.6C1389.88 90.0133 1390.86 81.764 1392.83 73.852C1394.85 65.8787 1397.92 58.764 1402.03 52.508C1406.14 46.1907 1411.29 41.192 1417.48 37.512C1423.74 33.832 1431.1 31.992 1439.56 31.992C1446.8 31.992 1452.75 33.004 1457.41 35.028C1462.13 36.9907 1465.97 39.5667 1468.91 42.756C1471.85 45.9453 1474.34 49.288 1476.36 52.784L1470.66 56.096C1468.94 53.152 1466.82 50.3613 1464.31 47.724C1461.86 45.0253 1458.64 42.848 1454.65 41.192C1450.72 39.4747 1445.7 38.616 1439.56 38.616C1432.32 38.616 1426.04 40.272 1420.7 43.584C1415.37 46.896 1410.95 51.3733 1407.45 57.016C1403.96 62.6587 1401.35 69.068 1399.63 76.244C1397.92 83.42 1397.06 90.872 1397.06 98.6C1397.06 106.205 1397.82 113.596 1399.36 120.772C1400.95 127.948 1403.44 134.388 1406.81 140.092C1410.18 145.735 1414.57 150.243 1419.97 153.616C1425.42 156.928 1432.02 158.584 1439.75 158.584C1448.39 158.584 1455.36 156.591 1460.63 152.604C1465.9 148.556 1469.74 144.109 1472.13 139.264L1478.2 141.656C1476.36 145.581 1473.76 149.353 1470.38 152.972C1467.01 156.529 1462.78 159.473 1457.69 161.804C1452.66 164.073 1446.68 165.208 1439.75 165.208ZM1545.32 165.208C1538.76 165.208 1532.78 163.981 1527.38 161.528C1522.04 159.013 1517.44 155.701 1513.58 151.592C1509.78 147.483 1506.86 143.005 1504.84 138.16L1511.83 135.952C1514.9 142.76 1519.38 148.28 1525.26 152.512C1531.15 156.683 1537.9 158.768 1545.5 158.768C1554.64 158.768 1561.97 156.407 1567.49 151.684C1573.07 146.961 1575.86 140.061 1575.86 130.984C1575.86 125.157 1574.39 120.097 1571.45 115.804C1568.5 111.449 1564.67 107.739 1559.95 104.672C1555.22 101.605 1550.16 99.0293 1544.77 96.944C1540.47 95.288 1536.21 93.448 1531.98 91.424C1527.81 89.3387 1523.98 86.8853 1520.48 84.064C1517.04 81.2427 1514.28 77.9 1512.2 74.036C1510.11 70.1107 1509.07 65.48 1509.07 60.144C1509.07 54.808 1510.39 50.024 1513.03 45.792C1515.73 41.4987 1519.65 38.1253 1524.8 35.672C1530.02 33.2187 1536.36 31.992 1543.85 31.992C1549.18 31.992 1554.12 32.8813 1558.66 34.66C1563.2 36.3773 1567.09 38.8307 1570.34 42.02C1573.59 45.148 1575.92 48.8587 1577.34 53.152L1570.71 55.176C1568.5 49.84 1565.1 45.7307 1560.5 42.848C1555.96 39.904 1550.23 38.432 1543.3 38.432C1534.77 38.432 1528.08 40.4253 1523.24 44.412C1518.46 48.3373 1516.06 53.704 1516.06 60.512C1516.06 66.032 1517.6 70.632 1520.66 74.312C1523.73 77.9307 1527.69 80.9973 1532.53 83.512C1537.38 86.0267 1542.44 88.3573 1547.71 90.504C1551.76 92.16 1555.84 94.1227 1559.95 96.392C1564.12 98.6 1567.92 101.299 1571.36 104.488C1574.79 107.677 1577.55 111.449 1579.64 115.804C1581.78 120.159 1582.86 125.28 1582.86 131.168C1582.86 138.405 1581.23 144.569 1577.98 149.66C1574.79 154.689 1570.37 158.553 1564.73 161.252C1559.09 163.889 1552.62 165.208 1545.32 165.208Z" fill="#07A254"/>
<path d="M65.776 165.208C57.5573 165.208 50.0747 163.736 43.328 160.792C36.5813 157.848 30.7853 153.647 25.94 148.188C21.156 142.729 17.5067 136.228 14.992 128.684L38.728 119.76C41.5493 125.771 45.3827 130.708 50.228 134.572C55.0733 138.375 60.4707 140.276 66.42 140.276C72.5533 140.276 77.46 139.049 81.14 136.596C84.82 134.143 86.66 130.585 86.66 125.924C86.66 122.735 85.5867 120.097 83.44 118.012C81.2933 115.927 78.3493 114.117 74.608 112.584C70.8667 110.989 66.5733 109.395 61.728 107.8C56.944 106.205 52.0987 104.457 47.192 102.556C42.2853 100.593 37.7773 98.1707 33.668 95.288C29.5587 92.4053 26.2467 88.756 23.732 84.34C21.2787 79.8627 20.052 74.3427 20.052 67.78C20.052 61.2787 21.7693 55.3293 25.204 49.932C28.7 44.4733 33.7293 40.1187 40.292 36.868C46.916 33.6173 54.92 31.992 64.304 31.992C72.032 31.992 78.9013 33.372 84.912 36.132C90.9227 38.8307 95.8907 42.5107 99.816 47.172C103.741 51.8333 106.501 57.0773 108.096 62.904L84.544 70.724C82.7653 66.7987 80.1893 63.5173 76.816 60.88C73.504 58.2427 68.8733 56.924 62.924 56.924C57.6493 56.924 53.5707 57.9053 50.688 59.868C47.8667 61.7693 46.456 64.56 46.456 68.24C46.456 70.632 47.4067 72.6867 49.308 74.404C51.2707 76.06 53.9387 77.5627 57.312 78.912C60.7467 80.2613 64.672 81.7027 69.088 83.236C74.3627 85.0147 79.6067 86.9773 84.82 89.124C90.0333 91.2707 94.756 93.908 98.988 97.036C103.281 100.164 106.685 104.059 109.2 108.72C111.776 113.381 113.064 119.147 113.064 126.016C113.064 134.296 110.979 141.349 106.808 147.176C102.637 153.003 96.964 157.48 89.788 160.608C82.6733 163.675 74.6693 165.208 65.776 165.208ZM136.094 163V34.2H192.214C203.132 34.2 211.841 36.224 218.342 40.272C224.844 44.2587 229.505 49.38 232.326 55.636C235.148 61.892 236.558 68.424 236.558 75.232C236.558 79.9547 235.73 84.7387 234.074 89.584C232.418 94.368 229.812 98.784 226.254 102.832C222.758 106.819 218.189 110.039 212.546 112.492C206.904 114.945 200.126 116.172 192.214 116.172H162.59V163H136.094ZM162.59 91.24H193.318C197.182 91.24 200.28 90.4427 202.61 88.848C204.941 87.2533 206.628 85.2293 207.67 82.776C208.713 80.2613 209.234 77.7467 209.234 75.232C209.234 72.9013 208.744 70.5093 207.762 68.056C206.842 65.5413 205.217 63.4253 202.886 61.708C200.556 59.9907 197.366 59.132 193.318 59.132H162.59V91.24ZM307.295 165.208C296.991 165.208 288.22 163.276 280.983 159.412C273.745 155.487 267.888 150.304 263.411 143.864C258.995 137.363 255.744 130.187 253.659 122.336C251.635 114.485 250.623 106.573 250.623 98.6C250.623 90.6267 251.635 82.7147 253.659 74.864C255.744 67.0133 258.995 59.868 263.411 53.428C267.888 46.9267 273.745 41.744 280.983 37.88C288.22 33.9547 296.991 31.992 307.295 31.992C317.721 31.992 326.523 33.9547 333.699 37.88C340.875 41.744 346.671 46.9267 351.087 53.428C355.564 59.868 358.815 67.0133 360.839 74.864C362.863 82.7147 363.875 90.6267 363.875 98.6C363.875 106.573 362.863 114.485 360.839 122.336C358.815 130.187 355.564 137.363 351.087 143.864C346.671 150.304 340.875 155.487 333.699 159.412C326.523 163.276 317.721 165.208 307.295 165.208ZM307.295 139.632C312.692 139.632 317.231 138.375 320.911 135.86C324.652 133.345 327.657 130.033 329.927 125.924C332.196 121.753 333.852 117.276 334.895 112.492C335.937 107.708 336.459 103.077 336.459 98.6C336.459 93.816 335.968 89.0013 334.987 84.156C334.005 79.3107 332.38 74.864 330.111 70.816C327.903 66.768 324.928 63.5173 321.187 61.064C317.445 58.6107 312.815 57.384 307.295 57.384C301.775 57.384 297.144 58.672 293.403 61.248C289.661 63.7627 286.656 67.0747 284.387 71.184C282.117 75.2933 280.492 79.7707 279.511 84.616C278.529 89.4613 278.039 94.1227 278.039 98.6C278.039 103.323 278.529 108.107 279.511 112.952C280.553 117.736 282.209 122.152 284.479 126.2C286.809 130.248 289.845 133.499 293.587 135.952C297.328 138.405 301.897 139.632 307.295 139.632ZM412.399 163V59.592H375.599V34.2H475.787V59.592H438.895V163H412.399ZM495.649 163V34.2H522.145V163H495.649ZM550.454 163V34.2H638.774V59.316H576.95V83.972H616.142V109.088H576.95V163H550.454ZM694.527 163V112.86L646.135 34.2H675.943L707.591 84.984L739.147 34.2H768.955L720.655 112.768V163H694.527Z" fill="#00CA65"/>
</g>
<defs>
<clipPath id="clip0_1_6">
<rect width="1604" height="202" fill="white"/>
</clipPath>
</defs>
</svg>
