<svg width="1632" height="199" viewBox="0 0 1632 199" fill="none"
    xmlns="http://www.w3.org/2000/svg">
    <g clip-path="url(#clip0_1_6)">
        <path d="M849.338 165.208C840.322 165.208 832.625 163.368 826.246 159.688C819.868 155.947 814.685 150.917 810.698 144.6C806.712 138.221 803.768 131.076 801.866 123.164C800.026 115.191 799.106 107.003 799.106 98.6C799.106 89.8293 800.088 81.4573 802.05 73.484C804.013 65.4493 807.018 58.3347 811.066 52.14C815.176 45.884 820.389 40.9773 826.706 37.42C833.085 33.8013 840.629 31.992 849.338 31.992C855.41 31.992 860.685 32.8813 865.162 34.66C869.64 36.4387 873.442 38.6773 876.57 41.376C879.76 44.0747 882.397 46.8347 884.482 49.656L878.594 53.52C875.773 49.5333 872.032 46.068 867.37 43.124C862.709 40.1187 856.698 38.616 849.338 38.616C841.365 38.616 834.618 40.3947 829.098 43.952C823.64 47.5093 819.224 52.232 815.85 58.12C812.477 64.008 810.024 70.4787 808.49 77.532C807.018 84.5853 806.282 91.608 806.282 98.6C806.282 106.389 807.11 113.872 808.766 121.048C810.422 128.224 812.968 134.633 816.402 140.276C819.898 145.919 824.345 150.396 829.742 153.708C835.201 156.959 841.733 158.584 849.338 158.584C856.208 158.584 862.157 156.928 867.186 153.616C872.277 150.304 876.202 145.336 878.962 138.712C881.784 132.027 883.194 123.624 883.194 113.504V111.296H856.146V105.04H890.186V111.296C890.186 124.053 888.408 134.388 884.85 142.3C881.354 150.212 876.509 156.008 870.314 159.688C864.181 163.368 857.189 165.208 849.338 165.208ZM930.788 163V34.2H997.948V40.272H937.412V93.264H978.26V99.336H937.412V156.928H1002V163H930.788ZM1038.46 163V34.2H1044.9L1110.96 141.104C1111.88 142.576 1112.83 144.109 1113.81 145.704C1114.79 147.299 1115.74 148.893 1116.66 150.488C1116.66 148.893 1116.66 147.329 1116.66 145.796C1116.66 144.201 1116.66 142.637 1116.66 141.104V34.2H1123.29V163H1116.85L1050.79 56.096C1049.87 54.624 1048.92 53.0907 1047.94 51.496C1046.96 49.84 1046.01 48.2453 1045.09 46.712C1045.09 48.2453 1045.09 49.8093 1045.09 51.404C1045.09 52.9373 1045.09 54.5013 1045.09 56.096V163H1038.46ZM1165.19 163V34.2H1232.35V40.272H1171.81V93.264H1212.66V99.336H1171.81V156.928H1236.4V163H1165.19ZM1301.36 163V40.824H1266.03V34.2H1343.5V40.824H1307.99V163H1301.36ZM1377.66 163V34.2H1384.29V163H1377.66ZM1471.85 165.208C1462.95 165.208 1455.32 163.368 1448.94 159.688C1442.62 155.947 1437.47 150.917 1433.48 144.6C1429.56 138.221 1426.64 131.076 1424.74 123.164C1422.9 115.191 1421.98 107.003 1421.98 98.6C1421.98 90.0133 1422.96 81.764 1424.93 73.852C1426.95 65.8787 1430.02 58.764 1434.13 52.508C1438.24 46.1907 1443.39 41.192 1449.58 37.512C1455.84 33.832 1463.2 31.992 1471.66 31.992C1478.9 31.992 1484.85 33.004 1489.51 35.028C1494.23 36.9907 1498.07 39.5667 1501.01 42.756C1503.95 45.9453 1506.44 49.288 1508.46 52.784L1502.76 56.096C1501.04 53.152 1498.92 50.3613 1496.41 47.724C1493.96 45.0253 1490.74 42.848 1486.75 41.192C1482.82 39.4747 1477.8 38.616 1471.66 38.616C1464.42 38.616 1458.14 40.272 1452.8 43.584C1447.47 46.896 1443.05 51.3733 1439.55 57.016C1436.06 62.6587 1433.45 69.068 1431.73 76.244C1430.02 83.42 1429.16 90.872 1429.16 98.6C1429.16 106.205 1429.92 113.596 1431.46 120.772C1433.05 127.948 1435.54 134.388 1438.91 140.092C1442.28 145.735 1446.67 150.243 1452.07 153.616C1457.52 156.928 1464.12 158.584 1471.85 158.584C1480.49 158.584 1487.46 156.591 1492.73 152.604C1498 148.556 1501.84 144.109 1504.23 139.264L1510.3 141.656C1508.46 145.581 1505.86 149.353 1502.48 152.972C1499.11 156.529 1494.88 159.473 1489.79 161.804C1484.76 164.073 1478.78 165.208 1471.85 165.208ZM1579.26 165.208C1572.7 165.208 1566.72 163.981 1561.32 161.528C1555.98 159.013 1551.38 155.701 1547.52 151.592C1543.72 147.483 1540.8 143.005 1538.78 138.16L1545.77 135.952C1548.84 142.76 1553.32 148.28 1559.2 152.512C1565.09 156.683 1571.84 158.768 1579.44 158.768C1588.58 158.768 1595.91 156.407 1601.43 151.684C1607.01 146.961 1609.8 140.061 1609.8 130.984C1609.8 125.157 1608.33 120.097 1605.39 115.804C1602.44 111.449 1598.61 107.739 1593.89 104.672C1589.16 101.605 1584.1 99.0293 1578.71 96.944C1574.41 95.288 1570.15 93.448 1565.92 91.424C1561.75 89.3387 1557.92 86.8853 1554.42 84.064C1550.98 81.2427 1548.22 77.9 1546.14 74.036C1544.05 70.1107 1543.01 65.48 1543.01 60.144C1543.01 54.808 1544.33 50.024 1546.97 45.792C1549.67 41.4987 1553.59 38.1253 1558.74 35.672C1563.96 33.2187 1570.3 31.992 1577.79 31.992C1583.12 31.992 1588.06 32.8813 1592.6 34.66C1597.14 36.3773 1601.03 38.8307 1604.28 42.02C1607.53 45.148 1609.86 48.8587 1611.28 53.152L1604.65 55.176C1602.44 49.84 1599.04 45.7307 1594.44 42.848C1589.9 39.904 1584.17 38.432 1577.24 38.432C1568.71 38.432 1562.02 40.4253 1557.18 44.412C1552.4 48.3373 1550 53.704 1550 60.512C1550 66.032 1551.54 70.632 1554.6 74.312C1557.67 77.9307 1561.63 80.9973 1566.47 83.512C1571.32 86.0267 1576.38 88.3573 1581.65 90.504C1585.7 92.16 1589.78 94.1227 1593.89 96.392C1598.06 98.6 1601.86 101.299 1605.3 104.488C1608.73 107.677 1611.49 111.449 1613.58 115.804C1615.72 120.159 1616.8 125.28 1616.8 131.168C1616.8 138.405 1615.17 144.569 1611.92 149.66C1608.73 154.689 1604.31 158.553 1598.67 161.252C1593.03 163.889 1586.56 165.208 1579.26 165.208Z" fill="#07A254"/>
        <path d="M66.328 165.208C57.9253 165.208 50.2587 163.675 43.328 160.608C36.4587 157.541 30.5093 153.156 25.48 147.452C20.512 141.687 16.7093 134.787 14.072 126.752L40.016 117C42.8987 123.072 46.7013 128.071 51.424 131.996C56.1467 135.86 61.36 137.792 67.064 137.792C72.768 137.792 77.3373 136.749 80.772 134.664C84.268 132.517 86.016 129.389 86.016 125.28C86.016 122.581 85.004 120.343 82.98 118.564C81.0173 116.785 78.2267 115.221 74.608 113.872C71.0507 112.461 66.88 110.989 62.096 109.456C57.2507 107.861 52.3133 106.113 47.284 104.212C42.2547 102.311 37.624 99.9187 33.392 97.036C29.2213 94.092 25.848 90.3507 23.272 85.812C20.696 81.2733 19.408 75.6 19.408 68.792C19.408 62.1067 21.1867 55.9733 24.744 50.392C28.3013 44.8107 33.4533 40.364 40.2 37.052C47.008 33.6787 55.2267 31.992 64.856 31.992C72.8293 31.992 79.9133 33.464 86.108 36.408C92.3027 39.2907 97.424 43.216 101.472 48.184C105.581 53.152 108.464 58.7333 110.12 64.928L84.36 73.392C82.52 69.4053 80.0053 66.0933 76.816 63.456C73.688 60.7573 69.2107 59.408 63.384 59.408C58.5387 59.408 54.7973 60.2667 52.16 61.984C49.584 63.64 48.296 66.0933 48.296 69.344C48.296 71.3067 49.1853 73.024 50.964 74.496C52.7427 75.9067 55.2267 77.2253 58.416 78.452C61.6053 79.6787 65.3467 80.9973 69.64 82.408C75.0987 84.1867 80.496 86.1493 85.832 88.296C91.2293 90.4427 96.1053 93.08 100.46 96.208C104.876 99.336 108.372 103.261 110.948 107.984C113.585 112.707 114.904 118.533 114.904 125.464C114.904 133.867 112.727 141.043 108.372 146.992C104.079 152.88 98.252 157.388 90.892 160.516C83.5933 163.644 75.4053 165.208 66.328 165.208ZM137.913 163V34.2H195.689C206.79 34.2 215.622 36.2547 222.185 40.364C228.809 44.412 233.562 49.6253 236.445 56.004C239.327 62.3213 240.769 68.9147 240.769 75.784C240.769 80.6293 239.91 85.5053 238.193 90.412C236.537 95.2573 233.899 99.7347 230.281 103.844C226.723 107.892 222.062 111.173 216.297 113.688C210.593 116.141 203.723 117.368 195.689 117.368H166.985V163H137.913ZM166.985 89.952H196.793C200.105 89.952 202.773 89.2467 204.797 87.836C206.821 86.4253 208.293 84.6467 209.213 82.5C210.133 80.292 210.593 78.0533 210.593 75.784C210.593 73.76 210.163 71.644 209.305 69.436C208.507 67.228 207.097 65.388 205.073 63.916C203.049 62.3827 200.289 61.616 196.793 61.616H166.985V89.952ZM312.588 165.208C302.222 165.208 293.39 163.276 286.092 159.412C278.793 155.487 272.874 150.304 268.336 143.864C263.858 137.363 260.577 130.187 258.492 122.336C256.406 114.485 255.364 106.573 255.364 98.6C255.364 90.6267 256.406 82.7147 258.492 74.864C260.577 67.0133 263.858 59.868 268.336 53.428C272.874 46.9267 278.793 41.744 286.092 37.88C293.39 33.9547 302.222 31.992 312.588 31.992C323.014 31.992 331.846 33.9547 339.084 37.88C346.321 41.744 352.178 46.9267 356.656 53.428C361.194 59.868 364.476 67.0133 366.5 74.864C368.585 82.7147 369.628 90.6267 369.628 98.6C369.628 106.573 368.585 114.485 366.5 122.336C364.476 130.187 361.194 137.363 356.656 143.864C352.178 150.304 346.321 155.487 339.084 159.412C331.846 163.276 323.014 165.208 312.588 165.208ZM312.588 137.056C317.494 137.056 321.665 135.86 325.1 133.468C328.534 131.076 331.294 127.948 333.38 124.084C335.526 120.22 337.06 116.049 337.98 111.572C338.961 107.095 339.452 102.771 339.452 98.6C339.452 94.184 338.992 89.7067 338.072 85.168C337.213 80.6293 335.741 76.4587 333.656 72.656C331.632 68.8533 328.872 65.7867 325.376 63.456C321.941 61.1253 317.678 59.96 312.588 59.96C307.436 59.96 303.112 61.1867 299.616 63.64C296.181 66.032 293.421 69.16 291.336 73.024C289.25 76.888 287.748 81.0893 286.828 85.628C285.969 90.1053 285.54 94.4293 285.54 98.6C285.54 102.893 286 107.309 286.92 111.848C287.84 116.325 289.342 120.496 291.428 124.36C293.574 128.163 296.365 131.229 299.8 133.56C303.296 135.891 307.558 137.056 312.588 137.056ZM419.519 163V62.168H382.535V34.2H485.759V62.168H448.591V163H419.519ZM505.862 163V34.2H534.934V163H505.862ZM563.405 163V34.2H654.485V61.8H592.477V82.776H631.301V110.376H592.477V163H563.405ZM712.036 163V112.952L662.54 34.2H695.292L726.388 82.04L757.3 34.2H790.236L740.74 112.952V163H712.036Z" fill="#00CA65"/>
    </g>
    <defs>
        <clipPath id="clip0_1_6">
            <rect width="1632" height="199" fill="white"/>
        </clipPath>
    </defs>
</svg>
